<?xml version="1.0" encoding="utf-8"?>
<!-- Generator: Adobe Illustrator 24.0.1, SVG Export Plug-In . SVG Version: 6.00 Build 0)  -->
<svg version="1.1" id="Layer_1" xmlns="http://www.w3.org/2000/svg" xmlns:xlink="http://www.w3.org/1999/xlink" x="0px" y="0px"
	 viewBox="0 0 54.96 21.84" style="enable-background:new 0 0 54.96 21.84;" xml:space="preserve">
<style type="text/css">
	.st0{fill:#939393;}
	.st1{fill:#4C4C4D;}
	.st2{font-family:'FNAbdullahLalmonirhatUni&BE';}
	.st3{font-size:12.9059px;}
</style>
<text transform="matrix(1 0 0 1 98.8282 15.9814)"><tspan x="0" y="0" class="st1" style="font-family:'LiHalderDipanwitaUnicode-Bold'; font-size:12px;">বই</tspan><tspan x="11.11" y="0" class="st0" style="font-family:'LiHalderDipanwitaUnicode-Bold'; font-size:12px;">পপপকক</tspan></text>
<g>
	<path class="st0" d="M90.49,3.63c-1.63,0-2.96,1.33-2.96,2.96s1.33,2.96,2.96,2.96c1.63,0,2.96-1.33,2.96-2.96
		S92.12,3.63,90.49,3.63z"/>
	<path class="st0" d="M93.96,11.61c-0.7-1.26-2.02-2.05-3.47-2.05c-1.44,0-2.77,0.78-3.47,2.05c-0.04,0.08-0.06,0.17-0.06,0.25
		l0.07,2.16c0.01,0.27,0.23,0.48,0.49,0.48h5.93c0.27,0,0.49-0.21,0.49-0.48l0.07-2.16C94.02,11.77,94,11.69,93.96,11.61z"/>
	<g>
		<path class="st0" d="M86.04,13.02c-0.69,0-1.24,0.65-1.24,1.48s0.54,1.48,1.24,1.48c0.69,0,1.24-0.65,1.24-1.48
			S86.74,13.02,86.04,13.02z"/>
		<path class="st0" d="M94.94,13.02c-0.69,0-1.24,0.65-1.24,1.48s0.54,1.48,1.24,1.48c0.69,0,1.24-0.65,1.24-1.48
			S95.63,13.02,94.94,13.02z"/>
	</g>
</g>
<path class="st1" d="M95.24,11.15c-0.12-0.09-0.27-0.13-0.42-0.1l-4.34,0.96l-4.34-0.96c-0.15-0.03-0.3,0-0.42,0.1
	c-0.12,0.09-0.19,0.24-0.19,0.39v5.43c0,0.23,0.16,0.43,0.39,0.48l4.45,0.99c0.04,0.01,0.07,0.01,0.11,0.01c0.04,0,0.07,0,0.11-0.01
	l4.45-0.99c0.23-0.05,0.39-0.25,0.39-0.48v-5.43C95.43,11.39,95.36,11.24,95.24,11.15z"/>
<text transform="matrix(1 0 0 1 18.1576 16.6934)"><tspan x="0" y="0" class="st1 st2 st3">বই</tspan><tspan x="10.76" y="0" class="st0 st2 st3">পপপকক</tspan></text>
<g>
	<path class="st0" d="M9.82,3.14c-1.63,0-2.96,1.33-2.96,2.96s1.33,2.96,2.96,2.96s2.96-1.33,2.96-2.96S11.45,3.14,9.82,3.14z"/>
	<path class="st0" d="M13.29,11.11c-0.7-1.26-2.02-2.05-3.47-2.05s-2.77,0.78-3.47,2.05c-0.04,0.08-0.06,0.17-0.06,0.25l0.07,2.16
		c0.01,0.27,0.23,0.48,0.49,0.48h5.93c0.27,0,0.49-0.21,0.49-0.48l0.07-2.16C13.35,11.28,13.33,11.19,13.29,11.11z"/>
	<g>
		<path class="st0" d="M5.37,12.52c-0.69,0-1.24,0.65-1.24,1.48s0.54,1.48,1.24,1.48s1.24-0.65,1.24-1.48S6.07,12.52,5.37,12.52z"/>
		<path class="st0" d="M14.27,12.52c-0.69,0-1.24,0.65-1.24,1.48s0.54,1.48,1.24,1.48s1.24-0.65,1.24-1.48S14.96,12.52,14.27,12.52z
			"/>
	</g>
</g>
<path class="st1" d="M14.57,10.66c-0.12-0.09-0.27-0.13-0.42-0.1l-4.34,0.96l-4.34-0.96c-0.15-0.03-0.3,0-0.42,0.1
	c-0.12,0.09-0.19,0.24-0.19,0.39v5.43c0,0.23,0.16,0.43,0.39,0.48l4.45,0.99c0.04,0.01,0.07,0.01,0.11,0.01c0.04,0,0.07,0,0.11-0.01
	l4.45-0.99c0.23-0.05,0.39-0.25,0.39-0.48v-5.43C14.76,10.89,14.69,10.75,14.57,10.66z"/>
</svg>
